<svg width="18" height="21" viewBox="0 0 18 21" fill="none" xmlns="http://www.w3.org/2000/svg">
<path fill-rule="evenodd" clip-rule="evenodd" d="M0.00114899 15.0934C0.00114899 15.2674 0.0688697 15.4343 0.189413 15.5574C0.309957 15.6805 0.47345 15.7496 0.643924 15.7496H15.8044L11.7588 19.8784C11.6381 20.0016 11.5703 20.1687 11.5703 20.343C11.5703 20.5172 11.6381 20.6843 11.7588 20.8076C11.8795 20.9308 12.0432 21 12.2139 21C12.3846 21 12.5483 20.9308 12.669 20.8076L17.8112 15.558C17.871 15.497 17.9185 15.4246 17.9509 15.3449C17.9833 15.2652 18 15.1797 18 15.0934C18 15.0071 17.9833 14.9216 17.9509 14.8419C17.9185 14.7622 17.871 14.6898 17.8112 14.6288L12.669 9.37921C12.5483 9.256 12.3846 9.18678 12.2139 9.18678C12.0432 9.18678 11.8795 9.256 11.7588 9.37921C11.6381 9.50243 11.5703 9.66955 11.5703 9.8438C11.5703 10.0181 11.6381 10.1852 11.7588 10.3084L15.8044 14.4372H0.643924C0.47345 14.4372 0.309957 14.5063 0.189413 14.6294C0.0688697 14.7524 0.00114899 14.9194 0.00114899 15.0934ZM17.9989 5.90661C17.9989 6.08065 17.9311 6.24755 17.8106 6.37062C17.69 6.49368 17.5266 6.56281 17.3561 6.56281H2.19558L6.24121 10.6916C6.30097 10.7526 6.34838 10.8251 6.38072 10.9048C6.41307 10.9845 6.42971 11.0699 6.42971 11.1562C6.42971 11.2425 6.41307 11.3279 6.38072 11.4076C6.34838 11.4873 6.30097 11.5598 6.24121 11.6208C6.18145 11.6818 6.1105 11.7302 6.03242 11.7632C5.95433 11.7962 5.87064 11.8132 5.78612 11.8132C5.70161 11.8132 5.61792 11.7962 5.53983 11.7632C5.46175 11.7302 5.3908 11.6818 5.33104 11.6208L0.188839 6.3712C0.12898 6.31025 0.0814881 6.23783 0.0490839 6.15811C0.0166798 6.07839 0 5.99293 0 5.90661C0 5.8203 0.0166798 5.73484 0.0490839 5.65511C0.0814881 5.57539 0.12898 5.50298 0.188839 5.44202L5.33104 0.192439C5.45174 0.0692223 5.61544 0 5.78612 0C5.95681 0 6.12051 0.0692223 6.24121 0.192439C6.36191 0.315655 6.42971 0.482773 6.42971 0.657027C6.42971 0.831282 6.36191 0.998399 6.24121 1.12162L2.19558 5.25041H17.3561C17.5266 5.25041 17.69 5.31955 17.8106 5.44261C17.9311 5.56567 17.9989 5.73258 17.9989 5.90661Z" fill="#7D7D7E"/>
</svg>
