<svg width="25" height="11" viewBox="0 0 25 11" fill="none" xmlns="http://www.w3.org/2000/svg">
<path d="M9.51656 0H5.3324C3.91816 2.17362e-08 2.56184 0.579463 1.56182 1.61091C0.561805 2.64236 0 4.04131 0 5.5C0 6.95869 0.561805 8.35764 1.56182 9.38909C2.56184 10.4205 3.91816 11 5.3324 11H10.6648C11.5181 11.0005 12.3591 10.7897 13.117 10.3854C13.875 9.98111 14.5278 9.3951 15.0207 8.6766C15.5135 7.95811 15.832 7.12811 15.9493 6.25633C16.0667 5.38456 15.9795 4.49647 15.695 3.66667H14.2197C14.0669 3.66667 13.9176 3.685 13.7754 3.7235C14.0751 4.28176 14.2285 4.91105 14.2202 5.54916C14.2119 6.18727 14.0422 6.81209 13.7281 7.36186C13.4139 7.91163 12.9661 8.36731 12.4288 8.68384C11.8916 9.00037 11.2835 9.1668 10.6648 9.16667H5.3324C4.38957 9.16667 3.48536 8.78036 2.81868 8.09272C2.152 7.40509 1.77747 6.47246 1.77747 5.5C1.77747 4.52754 2.152 3.59491 2.81868 2.90727C3.48536 2.21964 4.38957 1.83333 5.3324 1.83333H8.06081C8.4483 1.144 8.93888 0.524333 9.51656 0Z" fill="#4154F1"/>
<path d="M14.3352 7.56216e-07C13.4819 -0.000460735 12.6409 0.210308 11.883 0.6146C11.125 1.01889 10.4722 1.6049 9.97932 2.3234C9.48648 3.04189 9.168 3.87189 9.05066 4.74367C8.93332 5.61544 9.02053 6.50353 9.30497 7.33333H11.2566C10.9446 6.77594 10.7804 6.14365 10.7804 5.50002C10.7804 4.8564 10.9446 4.22411 11.2566 3.66671C11.5686 3.10931 12.0174 2.64643 12.5578 2.32461C13.0982 2.00278 13.7112 1.83335 14.3352 1.83333H19.6676C20.6104 1.83333 21.5146 2.21964 22.1813 2.90728C22.848 3.59491 23.2225 4.52754 23.2225 5.5C23.2225 6.47246 22.848 7.40509 22.1813 8.09272C21.5146 8.78036 20.6104 9.16667 19.6676 9.16667H16.9392C16.5525 9.8549 16.0602 10.474 15.4817 11H19.6676C20.3679 11 21.0613 10.8577 21.7082 10.5813C22.3552 10.3049 22.943 9.89981 23.4382 9.38909C23.9333 8.87837 24.3261 8.27205 24.5941 7.60476C24.8621 6.93747 25 6.22227 25 5.5C25 4.77773 24.8621 4.06253 24.5941 3.39524C24.3261 2.72795 23.9333 2.12164 23.4382 1.61091C22.943 1.10019 22.3552 0.695064 21.7082 0.418664C21.0613 0.142263 20.3679 7.45454e-07 19.6676 7.56216e-07H14.3352Z" fill="#4154F1"/>
</svg>
